<svg width="36" height="36" viewBox="0 0 36 36" fill="none" xmlns="http://www.w3.org/2000/svg">
<path d="M27.2656 4.76563C28.2422 3.78906 28.2422 2.20313 27.2656 1.22656C26.2891 0.25 24.7031 0.25 23.7266 1.22656L13 11.9609L8.51562 7.47656C7.53906 6.5 5.95313 6.5 4.97656 7.47656C4 8.45313 4 10.0391 4.97656 11.0156L11.2266 17.2656C12.2031 18.2422 13.7891 18.2422 14.7656 17.2656L27.2656 4.76563ZM34.7656 14.7656C35.7422 13.7891 35.7422 12.2031 34.7656 11.2266C33.7891 10.25 32.2031 10.25 31.2266 11.2266L13 29.4609L4.76562 21.2344C3.78906 20.2578 2.20312 20.2578 1.22656 21.2344C0.25 22.2109 0.25 23.7969 1.22656 24.7734L11.2266 34.7734C12.2031 35.75 13.7891 35.75 14.7656 34.7734L34.7656 14.7734V14.7656Z" fill="#0B0A0C"/>
</svg>
