<svg width="38" height="44" viewBox="0 0 38 44" fill="none" xmlns="http://www.w3.org/2000/svg">
<path d="M13.4899 0.463792C14.1505 -0.163552 15.1751 -0.154958 15.8356 0.472385C18.1729 2.69817 20.3661 5.09582 22.4155 7.69113C23.347 6.45364 24.4055 5.10442 25.5487 4.00442C26.2177 3.36848 27.2508 3.36848 27.9198 4.01301C30.8498 6.84895 33.331 10.5958 35.0755 14.1536C36.7946 17.6599 37.9378 21.2435 37.9378 23.77C37.9378 34.7357 29.4865 43.9997 18.9689 43.9997C8.33276 43.9997 0 34.7271 0 23.7614C0 20.4614 1.50735 16.431 3.84459 12.4435C6.20723 8.39582 9.54372 4.17629 13.4899 0.463792ZM19.1128 35.7497C21.2553 35.7497 23.1522 35.1482 24.939 33.945C28.5041 31.4185 29.4611 26.3654 27.3186 22.395C27.0815 21.9138 26.8444 21.4325 26.4887 20.9513L22.2038 26.0044C22.2038 26.0044 15.3106 17.1013 14.8279 16.4997C11.2712 20.9513 9.48444 23.4779 9.48444 26.3654C9.48444 32.2607 13.7694 35.7497 19.1128 35.7497Z" fill="#0B0A0C"/>
</svg>
