<svg width="36" height="47" viewBox="0 0 36 47" fill="none" xmlns="http://www.w3.org/2000/svg">
<path d="M29.1964 4.041C29.7232 2.79966 29.3304 1.34992 28.25 0.552557C27.1696 -0.244801 25.6964 -0.172314 24.6875 0.715653L1.83037 21.012C0.937513 21.8094 0.616084 23.087 1.03573 24.2105C1.45537 25.3341 2.5268 26.0952 3.7143 26.0952H13.6697L6.80358 42.3504C6.2768 43.5918 6.66965 45.0415 7.75001 45.8389C8.83037 46.6362 10.3036 46.5638 11.3125 45.6758L34.1697 25.3794C35.0625 24.582 35.3839 23.3045 34.9643 22.1809C34.5447 21.0574 33.4822 20.3053 32.2857 20.3053H22.3304L29.1964 4.041Z" fill="#0B0A0C"/>
</svg>
