<svg width="38" height="46" viewBox="0 0 38 46" fill="none" xmlns="http://www.w3.org/2000/svg">
<path d="M29 4.28571C29 1.91964 27.0803 0 24.7143 0C22.3482 0 20.4286 1.91964 20.4286 4.28571C20.4286 6.65179 22.3482 8.57143 24.7143 8.57143C27.0803 8.57143 29 6.65179 29 4.28571ZM11.6518 15.6696C12.5357 14.7857 13.7411 14.2857 15 14.2857C15.1696 14.2857 15.3393 14.2946 15.5 14.3125L12.7143 22.6786C11.8839 25.1786 12.8661 27.9286 15.1071 29.3304L22.8036 34.1429L20.5357 42.0714C20.0982 43.5893 20.9821 45.1696 22.5 45.6071C24.0178 46.0446 25.5982 45.1607 26.0357 43.6429L28.5982 34.6786C29.125 32.8393 28.3661 30.875 26.75 29.8661L21.6786 26.6964L24.4375 19.3393L24.8928 20.4375C26.2321 23.6339 29.3482 25.7143 32.8125 25.7143H34.7143C36.2946 25.7143 37.5714 24.4375 37.5714 22.8571C37.5714 21.2768 36.2946 20 34.7143 20H32.8125C31.6607 20 30.6161 19.3036 30.1786 18.2411L29.6161 16.9018C28.3125 13.7679 25.6786 11.375 22.4286 10.375L18.0803 9.03571C17.0893 8.73214 16.0536 8.57143 15.0089 8.57143C12.2411 8.57143 9.58034 9.66964 7.62499 11.6339L5.55356 13.6964C4.43749 14.8125 4.43749 16.625 5.55356 17.7411C6.66963 18.8571 8.48213 18.8571 9.5982 17.7411L11.6607 15.6786L11.6518 15.6696ZM8.57141 31.4286H3.2857C1.70534 31.4286 0.428558 32.7054 0.428558 34.2857C0.428558 35.8661 1.70534 37.1429 3.2857 37.1429H9.49999C11.1964 37.1429 12.7321 36.1429 13.4196 34.5982L14.4464 32.2857L13.5982 31.75C12.0357 30.7768 10.875 29.3571 10.2143 27.7411L8.57141 31.4286Z" fill="#0B0A0C"/>
</svg>
