<svg width="38" height="40" viewBox="0 0 38 40" fill="none" xmlns="http://www.w3.org/2000/svg">
<path d="M20.0468 0.226562C19.7187 0.078125 19.3672 0 19 0C18.6328 0 18.2812 0.078125 17.9531 0.226562L3.24216 6.46875C1.52341 7.19531 0.242162 8.89062 0.249974 10.9375C0.289037 18.6875 3.47654 32.8672 16.9375 39.3125C18.2422 39.9375 19.7578 39.9375 21.0625 39.3125C34.5234 32.8672 37.7109 18.6875 37.75 10.9375C37.7578 8.89062 36.4765 7.19531 34.7578 6.46875L20.0468 0.226562ZM19 8.75C19.6875 8.75 20.25 9.3125 20.25 10C20.25 12.5781 23.3672 13.8672 25.1875 12.0469C25.6719 11.5625 26.4687 11.5625 26.9531 12.0469C27.4375 12.5312 27.4375 13.3281 26.9531 13.8125C25.1328 15.6328 26.4219 18.75 29 18.75C29.6875 18.75 30.25 19.3125 30.25 20C30.25 20.6875 29.6875 21.25 29 21.25C26.4219 21.25 25.1328 24.3672 26.9531 26.1875C27.4375 26.6719 27.4375 27.4688 26.9531 27.9531C26.4687 28.4375 25.6719 28.4375 25.1875 27.9531C23.3672 26.1328 20.25 27.4219 20.25 30C20.25 30.6875 19.6875 31.25 19 31.25C18.3125 31.25 17.75 30.6875 17.75 30C17.75 27.4219 14.6328 26.1328 12.8125 27.9531C12.3281 28.4375 11.5312 28.4375 11.0468 27.9531C10.5625 27.4688 10.5625 26.6719 11.0468 26.1875C12.8672 24.3672 11.5781 21.25 8.99998 21.25C8.31247 21.25 7.74997 20.6875 7.74997 20C7.74997 19.3125 8.31247 18.75 8.99998 18.75C11.5781 18.75 12.8672 15.6328 11.0468 13.8125C10.5625 13.3281 10.5625 12.5312 11.0468 12.0469C11.5312 11.5625 12.3281 11.5625 12.8125 12.0469C14.6328 13.8672 17.75 12.5781 17.75 10C17.75 9.3125 18.3125 8.75 19 8.75ZM17.125 20C18.164 20 19 19.1641 19 18.125C19 17.0859 18.164 16.25 17.125 16.25C16.0859 16.25 15.25 17.0859 15.25 18.125C15.25 19.1641 16.0859 20 17.125 20ZM22.75 22.5C22.75 21.8125 22.1875 21.25 21.5 21.25C20.8125 21.25 20.25 21.8125 20.25 22.5C20.25 23.1875 20.8125 23.75 21.5 23.75C22.1875 23.75 22.75 23.1875 22.75 22.5Z" fill="black"/>
</svg>
