<svg width="40" height="36" viewBox="0 0 40 36" fill="none" xmlns="http://www.w3.org/2000/svg">
<path d="M24.4844 0.570508C26.5156 0.976758 27.8359 2.95332 27.4297 4.98457L27.25 5.8752C26.8359 7.96113 26.0703 9.94551 25 11.7502H36.25C38.3203 11.7502 40 13.4299 40 15.5002C40 17.4768 38.4766 19.0939 36.5391 19.2424C37.1406 19.9064 37.5 20.7893 37.5 21.7502C37.5 23.5783 36.1875 25.1018 34.4609 25.4299C34.8047 25.9924 35 26.6643 35 27.3752C35 29.0393 33.9141 30.4533 32.4141 30.9377C32.4688 31.1955 32.5 31.4689 32.5 31.7502C32.5 33.8205 30.8203 35.5002 28.75 35.5002H23.0078C21.5234 35.5002 20.0781 35.0627 18.8438 34.2424L15.8359 32.2346C13.75 30.8439 12.5 28.5002 12.5 25.9924V23.0002V19.2502V17.3049C12.5 15.0236 13.5391 12.8752 15.3125 11.4455L15.8906 10.9846C17.9609 9.32832 19.375 7.0002 19.8906 4.40645L20.0703 3.51582C20.4766 1.48457 22.4531 0.164258 24.4844 0.570508ZM2.5 13.0002H7.5C8.88281 13.0002 10 14.1174 10 15.5002V33.0002C10 34.383 8.88281 35.5002 7.5 35.5002H2.5C1.11719 35.5002 0 34.383 0 33.0002V15.5002C0 14.1174 1.11719 13.0002 2.5 13.0002Z" fill="#0B0A0C"/>
</svg>
